<?xml version="1.0" encoding="UTF-8"?><svg xmlns="http://www.w3.org/2000/svg" viewBox="0 0 1030.38 1030.38"><defs><style>.cls-1{fill:none;}.cls-1,.cls-2,.cls-3,.cls-4,.cls-5,.cls-6,.cls-7,.cls-8{stroke-width:0px;}.cls-2{fill:#ebf8f9;opacity:.2;}.cls-3{fill:#268c94;}.cls-4{fill:#33bbc5;}.cls-5{fill:#124145;}.cls-6{fill:#c0eaed;}.cls-7{fill:#fff;}.cls-8{fill:#ffde67;}</style></defs><g id="standard"><path class="cls-7" d="m474.36,318.9h-7.3v-19.7h7.3v3.05h-.12c.13-.37.44-.84.94-1.4.5-.57,1.19-1.08,2.09-1.54.9-.46,1.99-.68,3.29-.68.91,0,1.75.14,2.52.42.77.28,1.33.55,1.68.8l-2.83,5.93c-.22-.27-.62-.56-1.19-.85-.57-.3-1.28-.44-2.12-.44-.98,0-1.78.25-2.41.74-.63.5-1.1,1.1-1.39,1.8s-.44,1.37-.44,1.99v9.89Z"/></g><g id="teal"><path class="cls-5" d="m790.88,284.77l89.83-1.3c6.97-.09,13.98-.09,21.02,0,8.92.11,16.85,3.87,23.79,11.3,22.06,23.63,7.78,57.16-16.22,71.91-15.54,9.53-33.71,12.26-51.64,12.34-.4,0-.74.33-.75.74-.35,7.79-.9,15.64-1.65,23.54-8.45,88.81-71.11,157.68-161.65,164.37-8.76.64-19.67.28-29.45.41-.73,0-1.4.4-1.78,1.03-15.17,25.55-30.22,52.15-40.31,80.5-9.69,27.19-15.57,51.13-14.15,80,2.26,45.79,32.85,86.81,80.19,91.69,10.48,1.08,20.03.31,28.67-2.32,22.83-6.95,40.62-28.1,41.39-52.8.28-8.89-1.73-16.61-6.04-23.13-3.47-5.25-8.51-11.31-15.14-18.18-36.88-38.26-30.7-98.1,5.4-133.98,21.87-21.74,53-35.2,84.02-32.74,53.48,4.26,96.08,52.34,87.17,107.32-4.84,29.9-26.07,55.77-56.57,62.56-25.21,5.62-52.7-4.51-64.19-28.61-3.34-7.01-4.28-14.75-2.81-23.21,1.32-6.72,4.64-12.25,9.95-16.59,12.65-10.33,31.67-5.79,34.91,11.3.52,2.75-.12,5.9-.52,8.63-.27,1.83.94,3.55,2.75,3.91,21.34,4.27,33.61-18.11,32.25-36.23-1.25-16.37-13.63-30.98-28.38-37.32-40.85-17.51-96.07,20.58-80.27,66.94,2.3,6.75,5.81,12.41,10.55,16.98,7.26,7.02,14.38,14.32,21.37,21.9,8.48,12.71,13.21,26.37,14.2,40.98,1.87,27.96-10,60.26-26.87,81.77-11.92,15.21-28.16,29.33-44.99,39.95-65.52,41.28-149.59,47.48-223.05,27.57-53.93-14.62-99.91-41.4-137.95-80.32-35.98-36.82-63.07-79.24-81.26-127.24-.31-.82-1.2-1.26-2.04-1-3.49,1.08-7.07,2.05-10.76,2.9-32.11,7.4-57.67-2.84-78.86-27.03-.83-.95-1.87-1.51-3.11-1.68-4.42-.64-8.83-1.82-13.21-3.55-17.91-7.06-33.77-17.3-47.57-30.72-38.68-37.59-58.41-86.75-54.44-140.97,2.24-30.68,11.39-58.72,27.45-84.12,12.75-20.18,28.73-38.94,47.54-53.71,21.4-16.82,44.53-30.94,70.41-39.69,27.63-9.35,56.06-13.52,85.29-12.53.55.02,1.04-.37,1.16-.91l2.4-11.65c.12-.58-.06-1.04-.54-1.39-44.08-32.46-46.77-90.94-37.16-139.69,1.72-8.69,4.78-20.79,17.37-16.4,3.68,1.29,12.12,9.62,15.01,12.14,11.12,9.74,21.25,20.56,30.41,32.45.83,1.08,1.47.98,1.91-.32.7-2.03,1.74-4.27,3.13-6.74,14.59-25.91,36-43.54,64.23-52.89.91-.3,1.46-1.24,1.26-2.19-9.56-44.85,14.08-93.49,60.69-103.69,34.33-7.49,62.36,6.48,81.22,34.4,4.43,6.56,7.6,10.65,9.52,12.28,9.34,7.97,22.68,9.56,34.24,6.19,7.52-2.2,14.14-4.48,19.44,3.07,4.11,5.87,3.42,13.2.29,19.7-9.34,19.45-31.46,28.77-52.32,26.47-23.1-2.53-35.94-14.51-50.06-32.11-24.83-30.96-63.72-8.27-61.33,27.31.04.5.44.9.94.93,42.47,1.87,85.07,27.18,101.33,67.68.15.4.6.59.99.44.14-.06.27-.15.35-.28,9.42-13.13,20.16-25.08,32.23-35.84,7.14-6.36,20-17.08,26.89-3.33,1.3,2.61,2.74,7.83,4.3,15.66,8.36,42.04,5.2,86.62-22.25,121.19-.63.79-.72,1.89-.23,2.78,4.17,7.63,4.83,15.59,1.97,23.89-.18.51.09,1.06.6,1.24.12.04.25.06.37.05,2.8-.13,5.69,0,8.66.36,44.34,5.49,79.89,26.71,110.71,56.96.21.22.56.21.78,0,.07-.07.12-.15.14-.24.86-2.89,1.57-5.89,2.14-9.01,3.56-19.49,9.61-37.33,25.23-50.57,23.6-20.01,41.46-19.5,41.46-19.5Z"/><path class="cls-5" d="m323.47,245.52c6.2,12.27,17.08,19.06,30.04,22.53l.28,35.01c-2.46,18.44,4.71,41.59,15.47,56.19,28.19,38.3,78.27,51.22,121.52,33.11,21.7-9.08,38.21-26.02,48.4-47.11.91-1.87,1.67-4.06,2.29-6.55,1.41-5.69,3.3-11.86,4.1-16.98,1.29-8.44,1.66-16.96,1.1-25.55l.32-26.84c7.45-3.09,13.18-5.89,17.21-8.4,6.42-4.01,11.69-9.71,15.8-17.11.14-.25.28-.67.45-1.25.33-1.2,1.36-1.9,1.77-2.69,1.22-2.43,1.91-4.95,2.07-7.56,3.17-10.28,4.41-20.85,3.74-31.72-.02-.31-.29-.55-.6-.53-.07,0-.13.02-.2.05-.74.33-1.39.84-1.94,1.54-5.9,7.59-11.64,15.3-17.22,23.12-3.58,5.01-9.88,12.73-16.63,10.94-.48-.14-.84-.42-1.06-.87-3.75-7.51-6.34-12.58-7.79-15.2-10.23-18.44-26.54-31.14-47.17-34.08-16.47-2.36-31.12,1.43-43.98,11.36-.62.47-1.47.48-2.1.03-37.76-27.32-81.28-6.32-97.21,33.45-2.64,6.61-10.56,6.56-14.63,1.59-8.35-10.21-16.29-20.73-23.8-31.56-.26-.37-.55-.63-.87-.78-.15-.07-.33,0-.4.14-.01.03-.02.06-.02.09-2.15,16.8,1.54,32.02,11.07,45.64Z"/><path class="cls-5" d="m587.36,298c3.28-8.33-.97-17.81-9.5-21.17t0,0c-8.53-3.36-18.11.67-21.39,9-3.28,8.33.97,17.81,9.5,21.17h0c8.53,3.36,18.11-.67,21.39-9h0Z"/><path class="cls-5" d="m768.86,350.99c-2.58,3.71-3.22,6.79-1.93,9.24,6.02,11.41,16.06,18.78,30.12,22.12,4.92,2.06,10.69,2.97,17.31,2.74.79-.02,1.44-.62,1.54-1.41,1.8-16.25,4.79-31.16,19.57-40.57,7.67-3.12,16.96-4.73,27.88-4.82,11.31-.1,22.5,1.42,28.28-6.88,7.47-9.27.62-17.96-9.82-17.95-19.07.03-38.15.03-57.22,0-19.2-.04-35.05,7.7-47.56,23.22-2.25,2.8-4.97,7.57-8.17,14.31Z"/><path class="cls-5" d="m259.3,360.1c-4.77.42-9.25,1.76-13.44,4.03-9.66,2.73-19.04,6.5-28.16,11.3-3.58.44-6.81,1.58-9.68,3.42-4.11,2.65-6.39,4.09-6.82,4.32-4.01,2.18-7.77,4.74-11.28,7.66-.42.36-1.68,1.21-3.75,2.56-1.09.71-2.29,1.69-3.59,2.91-7.37,6.95-12.69,12.32-15.98,16.09-3.25,3.75-7.81,10.07-13.67,18.96-2.01,3.06-4.04,7.17-6.4,10.57-2.14,3.1-3.7,5.74-4.68,7.91-3.99,8.87-6.76,15.9-8.31,21.09-13.44,44.8-3.23,93.62,29.46,127.63,6.15,6.39,13.19,11.99,21.11,16.8.58.35,1.34.16,1.69-.42.09-.15.14-.31.17-.48,1.96-15.67,7.69-29.79,17.18-42.36.16-.23.23-.49.19-.77l-.07-.49c9.42-14.2,24.15-29.01,40.3-35.39.37-.13.56-.54.42-.91-.1-.27-.35-.46-.64-.47-21.63-1.64-37.79-17.83-36.72-39.91,1.16-24.08,19.64-39.81,39.56-50.54,1.68,9.82,5.37,18.31,11.08,25.48,1.32,1.65,2.97,2.69,4.72,3.85.17.12.22.35.1.52-.03.04-.06.07-.1.1-6.91,4.74-12.56,9.58-10.85,18.63,3.48,18.38,16.11,28.03,32.46,34.87,7.14,2.97,15.2,5.77,21.41,9.4,19.97,11.65,33.14,28.21,39.52,49.69,7.21,24.34,4.42,48.16-8.37,71.47-1.81,3.3-5.84,8.84-4.72,12.57,7.65,25.44,20.57,48.56,35,71.14,28.6,44.74,66.34,78.97,113.21,102.69,41.31,20.9,86.9,28.3,132.07,26.28,5.95-.27,12.42-.96,19.41-2.06,9.39-1.46,18.9-2.72,28.1-5.11.7-.17.7-.36.01-.56-45.8-13.53-79.32-45.67-92.46-91.72-16.46-57.67,1.59-116.81,27.48-169.87,9.07-18.6,18.9-36.78,29.49-54.55,4.89-8.2,9.12-16.72,12.7-25.57.91-2.27,2.11-3.3,4.59-2.81,16.14,3.2,32.41,4.29,48.83,3.29,38.04-2.32,68.95-18.13,92.74-47.44,11.94-14.71,20.3-31.33,25.1-49.86.12-.46-.15-.92-.61-1.04-.02,0-.04,0-.06-.01l-17.77-3.56c-8.3-2.49-15.55-5.59-21.77-9.29-9.26-5-16.76-11.15-22.5-18.44-.39-.49-1.11-.58-1.6-.19-.03.02-.06.05-.08.07-7.56,7.32-17.57,15.04-28.7,15.69-17.41,1.01-32.17-13.4-44.78-23.38-8.82-6.98-18.27-12.96-28.35-17.92-2.4-1.17-5.43-1.61-7.95-3.19-1.2-1.32-2.6-1.85-4.2-1.58-15.79-5.53-32.53-7.24-48.77-7.94-.93-.04-1.77.57-2.01,1.48-2.22,8.28-5.68,16.48-10.39,24.61-8.21,13.32-18.78,25.85-31.71,37.6-2.09.64-4.09,1.63-6.01,2.98-10.01,7.05-22.54,12.76-31.03,16.31-23.35,9.76-51.34,10.23-77.19,5.32-8.59-1.63-16.4-3.82-23.41-6.58-7.81-3.07-15.09-6.74-21.83-10.99-4.98-3.15-8.91-5.44-11.79-6.88-9.82-7.92-18.57-16.96-26.25-27.12-2.78-3.68-5.3-8.3-8.1-12.43-4.8-7.27-8.5-14.93-11.1-22.99-.23-.69-.87-1.16-1.59-1.16-7.48-.05-14.91.1-22.28.45-12.75.6-24.93,2.67-36.56,6.21Z"/><path class="cls-5" d="m232.67,605.44c-10.82,21.32-3.24,47.3,21.06,54.35,11.94,3.48,26.99,1.42,36.33-8.4,5.65-5.95,10.36-12.36,12.36-20.44,4.24-7.84,3.95-19.86,2.09-28.32-4.08-18.41-21.34-33.65-40.42-29.48-15.95,3.49-27.13,16.6-31.42,32.29Z"/><path class="cls-5" d="m416.74,238.9c-9.6-4.62-20.74-3.33-28.94,3.58-4.68,3.95-11.79,11.04-17.53,4.45-6.62-7.59,6.71-20.99,12.44-24.76,11.29-7.44,23.35-8.74,36.17-3.93,5.99,2.26,9.75,6.11,11.3,11.55,1.52,5.36-2.35,10.84-7.97,10.88-1.18,0-3-.58-5.48-1.77Z"/><path class="cls-5" d="m475.71,240.13c-11.73-5.53-1.91-18.32,5.78-21.6,11.33-4.83,22.36-4.28,33.09,1.64,7.81,4.3,26.89,20.53,13.34,28.38-2.82,1.64-6.29,1.17-8.94-1.09-8.65-7.34-15.95-12.53-28.12-10.18-3.66.71-10.73,4.94-15.15,2.85Z"/><path class="cls-5" d="m431.07,284.84c-1.39,2.9-6.4,7.01-9.84,3.93-7.05-6.36-14.92-9.52-23.63-3.85-2.2,1.42-4.55,4.55-7.42,5.49-3.34,1.11-5.81-.15-7.42-3.78-2.96-6.69-1.44-12.51,4.55-17.46,12.28-10.13,24.77-10.93,37.45-2.39,4.78,3.23,9.04,12.34,6.3,18.06Z"/><path class="cls-5" d="m506.41,288.31c-6.87-6-15.89-8.3-24.03-2.45-4.88,3.51-10.7,5.94-13.43-1.32-2.35-6.27.88-12.33,5.97-16.43,11.81-9.52,31.64-8.39,40.66,5,3.51,5.21,4.91,18.96-4.56,17.64-1.42-.19-2.96-1.01-4.61-2.45Z"/><path class="cls-5" d="m488.4,336.17c-20.67,23.63-59.74,22.76-78.69-2.46-2.65-3.52-3.95-6.86-3.93-10.02.1-8.87,10.3-13.33,17.08-5.98,3.81,4.13,7.07,8.23,12.85,10.37,12.86,4.77,28.77,3.36,38.65-7.24,2.93-3.14,5.13-5.08,6.61-5.84,8.21-4.17,16.09,6.68,12.63,14.17-.7,1.52-2.44,3.85-5.2,7.01Z"/><path class="cls-3" d="m584.28,232.32c-.16,2.61-.85,5.13-2.07,7.56-.41.8-1.43,1.49-1.77,2.69-.16.58-.31.99-.45,1.25-4.11,7.4-9.38,13.1-15.8,17.11-4.03,2.51-9.76,5.31-17.21,8.4l.54-13.23c.04-.78.43-1.07,1.19-.87,3.92,1.08,7.97.99,12.14-.29,11.7-3.56,19.52-11.11,23.44-22.63Z"/><path class="cls-3" d="m323.47,245.52c7.91,7.16,18.41,11.82,29.36,9.69.56-.11.84.13.84.7l-.16,12.14c-12.96-3.46-23.84-10.26-30.04-22.53Z"/><path class="cls-3" d="m546.66,296.17c.56,8.59.19,17.11-1.1,25.55-.8,5.11-2.69,11.28-4.1,16.98-.62,2.49-1.38,4.67-2.29,6.55-10.18,21.09-26.7,38.02-48.4,47.11-43.25,18.11-93.33,5.19-121.52-33.11-10.76-14.6-17.93-37.75-15.47-56.19,5.61,32.98,22.93,59.61,54.03,72.66,48.19,20.19,103.63,6.69,128.68-42.23,1.9-3.71,3.16-7.92,4.2-11.98.52-2.04,1.67-3.48,2.14-5.4.94-3.77,1.54-6.43,2.93-11.11.83-2.83,1.13-5.77.9-8.82Z"/><path class="cls-3" d="m835.47,343.11c-14.78,9.42-17.77,24.32-19.57,40.57-.09.78-.75,1.38-1.54,1.41-6.62.23-12.39-.68-17.31-2.74,1.23.45,2.06.18,2.51-.83,7.85-17.8,16.2-32.85,35.91-38.42Z"/><path class="cls-3" d="m217.69,375.42l-2.17,1.25c-2.56.88-4.99,1.95-7.3,3.2-.3.16-.58.42-.85.78-.33.44-.64.7-.93.75-2.22.47-3.8,1.59-4.74,3.35-2.1,1.72-4.64,2.85-6.61,4.43-4.62,3.74-9.58,7.45-13.62,11.43-12.43,12.27-22.67,26.21-30.71,41.82-2.17,4.22-4.49,10.87-6.95,19.95-3.53,12.99-6.58,38.47,1.61,49.5-1.72,1.12-.83,3.95-.28,5.5,7.5,21.24,20.83,37.81,41.62,47.88,5.62,2.72,12.27,6.66,16.47,5.59l.07.49c.04.28-.02.54-.19.77-9.49,12.56-15.22,26.68-17.18,42.36-.09.67-.7,1.15-1.38,1.06-.17-.02-.33-.08-.48-.17-7.92-4.81-14.95-10.41-21.11-16.8-32.69-34.01-42.91-82.83-29.46-127.63,1.55-5.2,4.33-12.23,8.31-21.09.98-2.17,2.53-4.81,4.68-7.91,2.36-3.4,4.39-7.52,6.4-10.57,5.86-8.89,10.42-15.21,13.67-18.96,3.28-3.78,8.61-9.14,15.98-16.09,1.3-1.23,2.5-2.2,3.59-2.91,2.08-1.35,3.33-2.21,3.75-2.56,3.52-2.93,7.28-5.48,11.28-7.66.43-.23,2.71-1.67,6.82-4.32,2.87-1.83,6.09-2.97,9.68-3.42Z"/><path class="cls-3" d="m536.44,416.97c-14.34,12.97-30.89,22-49.64,27.1-14.18,3.85-30.25,4.65-45.35,4.32-15.76-.35-31.93-4.82-46.35-10.97-6.55-2.8-13.05-6.92-19.38-10.73-3.34-2.01-6.85-5.2-10.53-9.56,2.88,1.44,6.81,3.73,11.79,6.88,6.74,4.26,14.02,7.92,21.83,10.99,7.01,2.75,14.81,4.94,23.41,6.58,25.86,4.91,53.84,4.45,77.19-5.32,8.49-3.55,21.02-9.26,31.03-16.31,1.92-1.35,3.93-2.35,6.01-2.98Z"/><path class="cls-3" d="m789.24,419.43l17.77,3.56c.46.09.77.54.68,1,0,.02,0,.04-.01.06-4.8,18.53-13.17,35.15-25.1,49.86-23.79,29.31-54.7,45.12-92.74,47.44-16.42,1-32.69-.09-48.83-3.29-2.48-.49-3.68.54-4.59,2.81-3.58,8.85-7.82,17.37-12.7,25.57-10.59,17.77-20.42,35.95-29.49,54.55-25.89,53.06-43.93,112.21-27.48,169.87,13.14,46.05,46.66,78.19,92.46,91.72.69.2.68.39-.01.56-9.2,2.39-18.72,3.65-28.1,5.11-6.99,1.1-13.46,1.79-19.41,2.06-45.17,2.03-90.75-5.37-132.07-26.28-46.87-23.72-84.6-57.95-113.21-102.69-14.43-22.58-27.35-45.7-35-71.14-1.12-3.74,2.91-9.27,4.72-12.57,12.8-23.31,15.59-47.14,8.37-71.47-6.37-21.48-19.55-38.04-39.52-49.69-6.21-3.64-14.27-6.43-21.41-9.4-16.35-6.84-28.99-16.48-32.46-34.87-1.71-9.05,3.94-13.89,10.85-18.63.17-.12.22-.35.1-.52-.03-.04-.06-.07-.1-.1-1.75-1.16-3.4-2.2-4.72-3.85-5.71-7.17-9.4-15.66-11.08-25.48,5.21-2.98,11.64-5.48,19.29-7.47,3.24-.84,9.45-2.17,18.66-4,.53-.1.65.08.35.52-9.63,14.79-8.01,33.85.81,48.19,21.31,34.64,68.89,44.86,105.85,36.53,15.27-3.45,29.01-9.44,46.75-12.39,11.69-1.93,23.25-1.41,34.71,1.56,11.62,3.01,24.47,7.91,34.4,10.11,27.74,6.17,55.36,4.32,80.76-9.44,16.06-8.7,26.98-21.74,32.77-39.11.97-2.9,1.51-5.81,1.64-8.73.02-.3.28-.53.58-.51.12,0,.22.05.31.12,55.48,47.74,138.14,28.99,166.21-39.59Zm-265.42,184c-2.52,0-4.42-.35-6.17-2.42-18.79-22.16-42.25-34.07-71.15-32.36-37.47,2.2-67.43,31.23-72.08,68.26-1.15,9.15-1.5,17-1.06,23.52,5.21,76.79,55.86,145.65,128.18,172.18,13.91,5.1,27.45,7.68,41.89,7.92.47,0,.54-.15.2-.49-50.08-50.53-52.97-139.58-24.08-199.93,6.68-13.96,13.72-24.73,24.02-35.27.31-.32.3-.84-.02-1.15-.15-.15-.35-.23-.56-.23-6.33-.02-12.72-.03-19.18-.03Z"/><path class="cls-3" d="m232.67,605.44c3.19,12.85,10.85,22.11,22.99,27.77,14.4,6.71,33.61,8.23,46.76-2.26-2,8.08-6.71,14.49-12.36,20.44-9.34,9.82-24.39,11.88-36.33,8.4-24.31-7.05-31.88-33.03-21.06-54.35Z"/><path class="cls-4" d="m584.28,232.32c-3.92,11.52-11.73,19.06-23.44,22.63-4.17,1.27-8.22,1.37-12.14.29-.75-.2-1.15.09-1.19.87l-.54,13.23-.32,26.84c.23,3.05-.07,5.99-.9,8.82-2.78,9.35-4.81,19.77-9.27,28.49-25.05,48.92-80.48,62.42-128.68,42.23-31.1-13.05-48.43-39.68-54.03-72.66l-.28-35.01.16-12.14c0-.57-.28-.8-.84-.7-10.95,2.13-21.45-2.53-29.36-9.69-9.53-13.63-13.22-28.84-11.07-45.64.01-.16.16-.27.33-.26.03,0,.06.01.09.02.32.15.61.42.87.78,7.51,10.84,15.45,21.36,23.8,31.56,4.07,4.97,11.99,5.01,14.63-1.59,15.93-39.76,59.45-60.77,97.21-33.45.63.46,1.48.44,2.1-.03,12.85-9.93,27.51-13.71,43.98-11.36,20.63,2.94,36.94,15.64,47.17,34.08,1.45,2.62,4.05,7.68,7.79,15.2.22.44.57.73,1.06.87,6.75,1.8,13.05-5.92,16.63-10.94,5.58-7.82,11.32-15.53,17.22-23.12.55-.7,1.2-1.21,1.94-1.54.28-.13.62,0,.75.28.03.06.04.13.05.2.68,10.87-.57,21.45-3.74,31.72Zm-196.48,10.15c8.2-6.91,19.34-8.2,28.94-3.58,2.47,1.19,4.3,1.78,5.48,1.77,5.62-.04,9.49-5.52,7.97-10.88-1.55-5.44-5.31-9.29-11.3-11.55-12.82-4.82-24.88-3.51-36.17,3.93-5.74,3.77-19.06,17.17-12.44,24.76,5.74,6.59,12.85-.49,17.53-4.45Zm93.69-23.94c-7.69,3.27-17.51,16.06-5.78,21.6,4.42,2.09,11.49-2.14,15.15-2.85,12.17-2.35,19.47,2.84,28.12,10.18,2.65,2.26,6.11,2.72,8.94,1.09,13.54-7.85-5.53-24.08-13.34-28.38-10.73-5.92-21.76-6.47-33.09-1.64Zm-60.26,70.24c3.43,3.09,8.45-1.03,9.84-3.93,2.74-5.72-1.52-14.83-6.3-18.06-12.68-8.54-25.16-7.74-37.45,2.39-5.99,4.94-7.5,10.76-4.55,17.46,1.6,3.63,4.08,4.89,7.42,3.78,2.87-.94,5.21-4.07,7.42-5.49,8.71-5.66,16.57-2.51,23.63,3.85Zm61.14-2.91c8.14-5.85,17.17-3.55,24.03,2.45,1.65,1.44,3.19,2.25,4.61,2.45,9.47,1.32,8.07-12.43,4.56-17.64-9.02-13.38-28.86-14.51-40.66-5-5.08,4.1-8.31,10.15-5.97,16.43,2.72,7.26,8.55,4.82,13.43,1.32Zm-72.66,47.85c18.95,25.22,58.02,26.09,78.69,2.46,2.76-3.16,4.5-5.49,5.2-7.01,3.46-7.49-4.42-18.34-12.63-14.17-1.48.75-3.68,2.7-6.61,5.84-9.88,10.6-25.78,12.01-38.65,7.24-5.78-2.14-9.04-6.24-12.85-10.37-6.78-7.34-16.98-2.88-17.08,5.98-.03,3.17,1.28,6.51,3.93,10.02Z"/><path class="cls-4" d="m891.63,331.4c-5.78,8.3-16.96,6.78-28.28,6.88-10.92.1-20.22,1.7-27.88,4.82-19.71,5.56-28.06,20.61-35.91,38.42-.44,1-1.28,1.28-2.51.83-14.06-3.34-24.1-10.71-30.12-22.12-1.29-2.45-.65-5.53,1.93-9.24,2.13,3.02,5.12,5.74,8.97,8.14,3.14,1.96,5.87,1.59,7.97-1.71,3.8-5.96,6.54-9.78,8.24-11.47,8.81-8.78,18.75-13.46,29.83-14.04,22.63-1.19,45.14-.84,67.76-.51Z"/><path class="cls-4" d="m330.83,377.58c2.8,4.13,5.32,8.75,8.1,12.43,7.68,10.16,16.43,19.2,26.25,27.12,3.68,4.37,7.19,7.55,10.53,9.56,6.33,3.81,12.83,7.94,19.38,10.73,14.43,6.14,30.59,10.62,46.35,10.97,15.11.33,31.17-.46,45.35-4.32,18.75-5.1,35.3-14.13,49.64-27.1,12.93-11.75,23.5-24.29,31.71-37.6,5.02.15,11.18,1.01,18.48,2.56,30.23,6.42,52.51,19.53,76.5,37.59,15.63,11.76,31.25,20.06,51.29,20.05,15.67,0,28.65-5.3,40.39-15.49,5.41-4.69,9.63-9.34,12.66-13.94,6.22,3.7,13.48,6.79,21.77,9.29-28.07,68.58-110.73,87.33-166.21,39.59-.24-.19-.58-.16-.77.08-.07.09-.12.2-.12.31-.13,2.93-.67,5.84-1.64,8.73-5.78,17.37-16.71,30.41-32.77,39.11-25.39,13.76-53.02,15.62-80.76,9.44-9.94-2.2-22.79-7.1-34.4-10.11-11.45-2.97-23.02-3.5-34.71-1.56-17.73,2.94-31.48,8.94-46.75,12.39-36.95,8.33-84.54-1.9-105.85-36.53-8.82-14.34-10.44-33.4-.81-48.19.3-.44.18-.62-.35-.52-9.2,1.83-15.42,3.16-18.66,4-7.66,2-14.09,4.49-19.29,7.47-19.92,10.73-38.4,26.47-39.56,50.54-1.07,22.08,15.09,38.27,36.72,39.91.39.01.7.34.68.74-.01.29-.19.54-.47.64-16.15,6.37-30.88,21.19-40.3,35.39-4.2,1.07-10.85-2.87-16.47-5.59-20.79-10.07-34.11-26.64-41.62-47.88-.55-1.55-1.45-4.39.28-5.5,11.66,10.5,22.61,3.46,23.83-10.44.61-7.05.59-14.7,2-21.16,3.67-16.79,11.3-32.18,22.9-46.17,4.59-5.53,8.77-9.77,12.56-12.7,15.59-12.11,32.72-21.41,51.41-27.9,3.14-1.09,6.31-2.09,9.5-2.98,19.35-5.45,39.87-9.13,61.55-11.04,1.04-.1,1.59-.73,1.65-1.9Z"/><path class="cls-4" d="m523.82,603.43c6.46,0,12.85,0,19.18.03.45,0,.81.37.81.81,0,.21-.08.41-.23.56-10.3,10.55-17.34,21.31-24.02,35.27-28.9,60.35-26,149.41,24.08,199.93.34.34.27.5-.2.49-14.44-.25-27.99-2.82-41.89-7.92-72.33-26.52-122.97-95.39-128.18-172.18-.44-6.53-.09-14.37,1.06-23.52,4.65-37.03,34.61-66.05,72.08-68.26,28.9-1.71,52.37,10.2,71.15,32.36,1.75,2.07,3.65,2.42,6.17,2.42Z"/><path class="cls-4" d="m302.42,630.95c-13.15,10.49-32.36,8.97-46.76,2.26-12.14-5.66-19.8-14.92-22.99-27.77,4.29-15.69,15.47-28.8,31.42-32.29,19.08-4.17,36.33,11.07,40.42,29.48,1.87,8.46,2.16,20.48-2.09,28.32Z"/><path class="cls-4" d="m790.01,676.22c-.76-.99-1.53-.41-2.29,1.77-2.45,7.05-.48,19.69,1.72,26.26,1.61,4.82,2.67,8.65,3.17,11.5-6.98-7.58-14.1-14.88-21.37-21.9-4.73-4.57-8.25-10.23-10.55-16.98-15.8-46.35,39.42-84.45,80.27-66.94,14.75,6.33,27.13,20.95,28.38,37.32,1.36,18.12-10.91,40.5-32.25,36.23-1.81-.37-3.02-2.08-2.75-3.91.41-2.74,1.04-5.88.52-8.63-3.24-17.09-22.26-21.63-34.91-11.3-5.31,4.34-8.63,9.86-9.95,16.59Z"/><path class="cls-6" d="m891.63,331.4c-22.63-.33-45.14-.68-67.76.51-11.08.58-21.02,5.26-29.83,14.04-1.7,1.69-4.45,5.51-8.24,11.47-2.1,3.3-4.82,3.66-7.97,1.71-3.84-2.4-6.83-5.12-8.97-8.14,3.2-6.74,5.92-11.51,8.17-14.31,12.51-15.52,28.36-23.26,47.56-23.22,19.07.03,38.15.03,57.22,0,10.44-.01,17.3,8.68,9.82,17.95Z"/><path class="cls-6" d="m330.83,377.58c-.06,1.17-.61,1.8-1.65,1.9-21.68,1.91-42.2,5.59-61.55,11.04-3.2.9-6.36,1.89-9.5,2.98-18.69,6.49-35.82,15.79-51.41,27.9-3.79,2.94-7.97,7.17-12.56,12.7-11.6,13.98-19.23,29.37-22.9,46.17-1.41,6.46-1.39,14.11-2,21.16-1.22,13.91-12.17,20.95-23.83,10.44-8.18-11.02-5.14-36.5-1.61-49.5,2.46-9.08,4.78-15.73,6.95-19.95,8.04-15.61,18.28-29.55,30.71-41.82,4.04-3.98,9-7.69,13.62-11.43,1.97-1.58,4.51-2.71,6.61-4.43l13.82-8.08,2.17-1.25c9.12-4.8,18.5-8.57,28.16-11.3l13.44-4.03c11.63-3.54,23.81-5.62,36.56-6.21,7.37-.35,14.79-.5,22.28-.45.73,0,1.37.47,1.59,1.16,2.6,8.05,6.3,15.72,11.1,22.99Z"/><path class="cls-6" d="m629.32,361.21c1.22,1.09,2.62,1.62,4.2,1.58,2.52,1.58,5.55,2.01,7.95,3.19,10.08,4.96,19.53,10.94,28.35,17.92,12.6,9.98,27.36,24.39,44.78,23.38,11.12-.65,21.13-8.37,28.7-15.69.45-.44,1.17-.42,1.61.03.03.03.05.05.07.08,5.74,7.29,13.24,13.44,22.5,18.44-3.03,4.6-7.25,9.24-12.66,13.94-11.73,10.18-24.71,15.49-40.39,15.49-20.05.01-35.66-8.29-51.29-20.05-23.99-18.06-46.27-31.17-76.5-37.59-7.3-1.55-13.46-2.41-18.48-2.56,4.7-8.13,8.17-16.34,10.39-24.61.24-.91,1.08-1.52,2.01-1.48,16.24.7,32.98,2.4,48.77,7.94Z"/><ellipse class="cls-7" cx="571.91" cy="291.91" rx="16.21" ry="16.6" transform="translate(90.7 717.04) rotate(-68.5)"/><path class="cls-2" d="m172.51,982.92c-.91-9.92,45.57-13.7,51.64-14.34,36.87-3.94,81.73-8.1,122.77-9.86,101.46-4.35,209.04-4.13,313.61-.25,37.13,1.38,65.33,3.81,97.98,6.21,8.7.65,17,1.43,24.89,2.36,3.09.36,73.36,5.85,59.87,18.32-3.81,3.53-12.72,4.97-17.77,5.85-20.31,3.53-43.79,6.28-70.44,8.23-55.81,4.1-112.29,7.4-168.4,8.03-66.39.74-113.94.67-142.65-.23-20.7-.65-41.41-1.25-62.13-1.8-32.86-.88-74.09-3.13-123.68-6.76-26.91-1.97-50.84-4.84-71.79-8.6-3.84-.7-7.27-2.11-10.82-3.59-1.9-.79-2.93-1.98-3.07-3.56Z"/></g><g id="stars"><rect class="cls-1" x="735.13" y="136.11" width="96.26" height="126.64"/><path class="cls-8" d="m827.58,197.43c-35.71-.24-42.09-4.49-42.36-57.2,0-1.33-1.09-2.41-2.41-2.41s-2.4,1.08-2.41,2.41c-.27,52.71-6.65,56.97-42.36,57.2-1.61,0-2.91,1.32-2.91,2.91s1.3,2.89,2.91,2.9c35.71.24,42.09,4.5,42.36,57.2,0,1.33,1.08,2.41,2.41,2.41s2.4-1.08,2.41-2.41c.27-52.7,6.65-56.96,42.36-57.2,1.6-.02,2.9-1.32,2.9-2.91s-1.3-2.9-2.9-2.91Z"/><rect class="cls-1" x="867.18" y="110.07" width="69.29" height="90.92"/><path class="cls-8" d="m934.28,153.76c-25.99-.17-31.1-3.57-31.3-42.11,0-.73-.59-1.32-1.31-1.32s-1.3.59-1.3,1.32c-.2,38.55-5.31,41.94-31.3,42.11-.92,0-1.67.75-1.67,1.67s.75,1.66,1.67,1.67c25.99.17,31.1,3.57,31.3,42.11,0,.73.59,1.31,1.3,1.31s1.31-.59,1.31-1.31c.2-38.55,5.31-41.94,31.3-42.11.92,0,1.67-.76,1.67-1.67s-.75-1.67-1.67-1.67Z"/><path class="cls-8" d="m866.76,223.3c-1.63,4.8-4.43,8.4-8.06,10.34,3.63,1.95,6.42,5.54,8.06,10.34,1.63-4.8,4.43-8.39,8.06-10.34-3.63-1.94-6.42-5.54-8.06-10.34Z"/><path class="cls-8" d="m819.26,146.51c1.63-4.8,4.42-8.39,8.05-10.34-3.63-1.95-6.41-5.54-8.05-10.34-1.64,4.8-4.43,8.39-8.06,10.34,3.63,1.95,6.41,5.54,8.06,10.34Z"/></g></svg>