<?xml version="1.0" encoding="UTF-8"?><svg id="stars" xmlns="http://www.w3.org/2000/svg" viewBox="0 0 1029.8 309.82"><defs><style>.cls-1{fill:none;}.cls-1,.cls-2,.cls-3,.cls-4{stroke-width:0px;}.cls-2{fill:#614bc3;}.cls-3{fill:#fff;}.cls-4{fill:#ffde67;}</style></defs><rect class="cls-1" x="884.5" y="34.25" width="45.88" height="60.36"/><path class="cls-4" d="m928.56,63.47c-17.02-.11-20.06-2.14-20.19-27.27,0-.63-.52-1.15-1.15-1.15s-1.15.52-1.15,1.15c-.13,25.13-3.17,27.15-20.19,27.27-.77,0-1.39.63-1.39,1.39s.62,1.38,1.39,1.38c17.02.12,20.06,2.15,20.19,27.27,0,.63.52,1.15,1.15,1.15s1.15-.52,1.15-1.15c.13-25.12,3.17-27.15,20.19-27.26.76,0,1.38-.63,1.38-1.39s-.62-1.38-1.38-1.39Z"/><rect class="cls-1" x="947.44" y="21.83" width="33.03" height="43.34"/><path class="cls-4" d="m979.42,42.66c-12.39-.08-14.82-1.7-14.92-20.07,0-.35-.28-.63-.62-.63s-.62.28-.62.63c-.1,18.37-2.53,19.99-14.92,20.07-.44,0-.8.36-.8.8s.36.79.8.8c12.39.08,14.82,1.7,14.92,20.07,0,.35.28.62.62.62s.62-.28.62-.62c.1-18.37,2.53-19.99,14.92-20.07.44,0,.8-.36.8-.8s-.36-.8-.8-.8Z"/><path class="cls-4" d="m947.24,75.8c-.78,2.29-2.11,4-3.84,4.93,1.73.93,3.06,2.64,3.84,4.93.78-2.29,2.11-4,3.84-4.93-1.73-.92-3.06-2.64-3.84-4.93Z"/><path class="cls-4" d="m924.6,39.2c.78-2.29,2.11-4,3.84-4.93-1.73-.93-3.06-2.64-3.84-4.93-.78,2.29-2.11,4-3.84,4.93,1.73.93,3.06,2.64,3.84,4.93Z"/><rect class="cls-1" x="23.29" y="227.68" width="45.88" height="60.36"/><path class="cls-4" d="m67.36,256.91c-17.02-.11-20.06-2.14-20.19-27.27,0-.63-.52-1.15-1.15-1.15s-1.15.52-1.15,1.15c-.13,25.13-3.17,27.15-20.19,27.27-.77,0-1.39.63-1.39,1.39s.62,1.38,1.39,1.38c17.02.12,20.06,2.15,20.19,27.27,0,.63.52,1.15,1.15,1.15s1.15-.52,1.15-1.15c.13-25.12,3.17-27.15,20.19-27.26.76,0,1.38-.63,1.38-1.39s-.62-1.38-1.38-1.39Z"/><rect class="cls-1" x="86.23" y="215.27" width="33.03" height="43.34"/><path class="cls-4" d="m118.22,236.1c-12.39-.08-14.82-1.7-14.92-20.07,0-.35-.28-.63-.62-.63s-.62.28-.62.63c-.1,18.37-2.53,19.99-14.92,20.07-.44,0-.8.36-.8.8s.36.79.8.8c12.39.08,14.82,1.7,14.92,20.07,0,.35.28.62.62.62s.62-.28.62-.62c.1-18.37,2.53-19.99,14.92-20.07.44,0,.8-.36.8-.8s-.36-.8-.8-.8Z"/><path class="cls-4" d="m86.03,269.24c-.78,2.29-2.11,4-3.84,4.93,1.73.93,3.06,2.64,3.84,4.93.78-2.29,2.11-4,3.84-4.93-1.73-.92-3.06-2.64-3.84-4.93Z"/><path class="cls-4" d="m63.39,232.64c.78-2.29,2.11-4,3.84-4.93-1.73-.93-3.06-2.64-3.84-4.93-.78,2.29-2.11,4-3.84,4.93,1.73.93,3.06,2.64,3.84,4.93Z"/><path class="cls-2" d="m103.8,127.13c2.83,0,5.43.43,7.81,1.3,2.38.87,4.11,1.7,5.2,2.49l-8.77,18.36c-.7-.84-1.92-1.72-3.68-2.64-1.76-.92-3.95-1.37-6.58-1.37-3.02,0-5.51.77-7.47,2.3-1.96,1.54-3.4,3.4-4.31,5.58s-1.37,4.24-1.37,6.17v30.63h-22.6v-61.04h22.6v8.59c-.16.3-.28.59-.37.85h.37v-.85c.51-.98,1.35-2.15,2.53-3.5,1.54-1.76,3.69-3.35,6.47-4.76,2.78-1.41,6.17-2.12,10.19-2.12m0-12.39c-5.33,0-10.14.93-14.33,2.77-1.49-.63-3.13-.98-4.85-.98h-22.6c-6.84,0-12.39,5.55-12.39,12.39v61.04c0,6.84,5.55,12.39,12.39,12.39h22.6c6.84,0,12.39-5.55,12.39-12.39v-30.63s0-.43.41-1.37c.03-.07.07-.16.17-.29.06,0,.12,0,.19,0,.57,0,.9.05,1.05.07.14.08.25.14.33.19,2.34,2.4,5.54,3.75,8.88,3.75.5,0,1.01-.03,1.51-.09,4.2-.52,7.85-3.14,9.67-6.96l8.77-18.36c2.58-5.4.93-11.87-3.91-15.38-2.08-1.51-4.69-2.81-8.23-4.1-3.74-1.36-7.79-2.05-12.05-2.05h0Z"/><path class="cls-2" d="m150.09,127.13c6.64,0,12.4,1.21,17.29,3.64,4.88,2.43,8.65,6.04,11.3,10.82,2.65,4.78,3.98,10.74,3.98,17.88,0,.4-.02,1.19-.04,2.38-.02,1.19-.08,1.98-.18,2.38h-44.16c.15,2.18.84,4.12,2.08,5.8,1.24,1.69,2.96,3.01,5.17,3.98s4.82,1.45,7.84,1.45,5.46-.3,7.77-.89c2.31-.6,4.31-1.34,6.02-2.23,1.71-.89,3.03-1.81,3.98-2.75l8.77,13.98c-1.24,1.34-2.99,2.64-5.24,3.9-2.26,1.26-5.22,2.29-8.89,3.09-3.67.79-8.3,1.19-13.9,1.19-6.74,0-12.74-1.26-17.99-3.79-5.25-2.53-9.39-6.25-12.42-11.15-3.03-4.91-4.54-10.9-4.54-17.99,0-5.95,1.3-11.31,3.91-16.1,2.6-4.78,6.38-8.58,11.34-11.37,4.96-2.8,10.93-4.2,17.92-4.2m-11.3,25.28h22.6c-.05-1.59-.47-3.16-1.26-4.72s-1.98-2.85-3.57-3.87c-1.59-1.01-3.62-1.52-6.1-1.52s-4.57.48-6.28,1.45c-1.71.97-3.01,2.22-3.91,3.75-.89,1.54-1.39,3.17-1.49,4.91m11.3-37.67c-9.12,0-17.2,1.95-24.01,5.8-6.98,3.94-12.41,9.41-16.13,16.24-3.59,6.6-5.41,14.01-5.41,22.02,0,9.39,2.15,17.63,6.38,24.5,4.27,6.93,10.19,12.26,17.59,15.82,6.92,3.33,14.78,5.02,23.36,5.02,6.54,0,11.94-.48,16.52-1.47,4.93-1.06,8.96-2.5,12.33-4.39,3.43-1.92,6.14-3.98,8.28-6.3,3.8-4.11,4.37-10.26,1.4-15l-1.4-2.23c2.64-1.65,4.64-4.29,5.45-7.47.35-1.39.51-2.89.56-5.16.03-1.32.04-2.19.04-2.63,0-9.23-1.86-17.26-5.53-23.89-3.88-7-9.48-12.35-16.62-15.91-6.59-3.28-14.26-4.94-22.81-4.94h0Z"/><path class="cls-2" d="m219.72,127.13c3.81,0,7.16.61,10.04,1.82,2.87,1.21,5.2,2.65,6.99,4.31s3.02,3.18,3.72,4.57v-8.92h22.45v61.04h-22.23v-9.89c-.44.99-1.57,2.43-3.38,4.31-1.81,1.88-4.2,3.58-7.17,5.09-2.98,1.51-6.45,2.27-10.41,2.27-5.95,0-11.15-1.45-15.61-4.35-4.46-2.9-7.93-6.79-10.41-11.67-2.48-4.88-3.72-10.3-3.72-16.24s1.24-11.36,3.72-16.25c2.48-4.88,5.95-8.79,10.41-11.71,4.46-2.93,9.67-4.39,15.61-4.39m6.69,46.84c2.73,0,5.13-.62,7.21-1.86,2.08-1.24,3.73-2.96,4.94-5.17,1.21-2.2,1.82-4.7,1.82-7.47s-.61-5.27-1.82-7.47c-1.22-2.21-2.86-3.94-4.94-5.2-2.08-1.26-4.49-1.9-7.21-1.9s-5.02.63-7.18,1.9c-2.16,1.26-3.88,3-5.17,5.2-1.29,2.21-1.93,4.7-1.93,7.47s.64,5.27,1.93,7.47c1.29,2.21,3.01,3.93,5.17,5.17s4.55,1.86,7.18,1.86m-6.69-59.23c-8.38,0-15.92,2.16-22.41,6.42-6.27,4.11-11.2,9.65-14.66,16.46-3.36,6.62-5.06,13.97-5.06,21.85s1.7,15.24,5.06,21.85c3.46,6.83,8.41,12.36,14.71,16.45,6.48,4.21,14.01,6.35,22.37,6.35,5.57,0,10.68-1.08,15.2-3.21,1.72.91,3.69,1.42,5.77,1.42h22.23c6.84,0,12.39-5.55,12.39-12.39v-61.04c0-6.84-5.55-12.39-12.39-12.39h-22.45c-1.93,0-3.76.44-5.39,1.23-.16-.07-.33-.14-.5-.21-4.4-1.86-9.4-2.8-14.86-2.8h0Zm6.69,46.84c-.64,0-.88-.14-1-.21-.2-.11-.39-.25-.64-.67-.07-.12-.24-.41-.24-1.22s.17-1.11.24-1.22c.25-.43.47-.61.74-.77.13-.08.33-.19.91-.19.46,0,.72.06.79.1.11.07.28.17.51.59.06.12.28.51.28,1.49s-.21,1.37-.29,1.5c-.2.36-.32.44-.43.5-.06.04-.33.11-.87.11h0Z"/><path class="cls-2" d="m346.56,87.65v102.3h-22.38v-9.89c-.94,1.83-2.48,3.66-4.61,5.46-2.13,1.81-4.63,3.3-7.51,4.46-2.87,1.16-5.97,1.75-9.29,1.75-5.9,0-11.03-1.45-15.39-4.35-4.36-2.9-7.74-6.79-10.15-11.67-2.41-4.88-3.61-10.3-3.61-16.24s1.2-11.36,3.61-16.25c2.41-4.88,5.79-8.79,10.15-11.71,4.36-2.93,9.49-4.39,15.39-4.39,3.91,0,7.38.61,10.41,1.82,3.02,1.21,5.48,2.65,7.36,4.31,1.88,1.66,3.02,3.18,3.42,4.57v-50.18h22.6m-36.87,86.32c2.73,0,5.17-.62,7.32-1.86,2.16-1.24,3.85-2.96,5.09-5.17,1.24-2.2,1.86-4.7,1.86-7.47s-.62-5.27-1.86-7.47c-1.24-2.21-2.94-3.94-5.09-5.2-2.15-1.26-4.6-1.9-7.32-1.9s-4.99.63-7.1,1.9c-2.11,1.26-3.77,3-4.98,5.2-1.22,2.21-1.82,4.7-1.82,7.47s.61,5.27,1.82,7.47c1.21,2.21,2.87,3.93,4.98,5.17,2.11,1.24,4.47,1.86,7.1,1.86m36.87-98.71h-22.6c-6.84,0-12.39,5.55-12.39,12.39v27.94c-2.78-.57-5.72-.86-8.8-.86-8.38,0-15.88,2.18-22.29,6.49-6.16,4.13-10.99,9.69-14.36,16.52-3.24,6.58-4.88,13.89-4.88,21.72s1.64,15.15,4.88,21.72c3.37,6.85,8.22,12.4,14.41,16.52,6.41,4.26,13.89,6.42,22.25,6.42,4.9,0,9.59-.89,13.94-2.65.51-.21,1.02-.43,1.52-.65,1.77.97,3.79,1.52,5.95,1.52h22.38c6.84,0,12.39-5.55,12.39-12.39v-102.3c0-6.84-5.55-12.39-12.39-12.39h0Zm-36.87,86.32c-.57,0-.74-.1-.82-.15-.12-.07-.23-.14-.41-.46-.08-.14-.29-.52-.29-1.5s.21-1.36.28-1.49c.2-.36.34-.46.51-.56.07-.04.22-.13.73-.13.72,0,.97.15,1.05.19.23.13.38.26.56.59.07.12.27.47.27,1.4s-.2,1.29-.27,1.4c-.17.31-.3.39-.46.49-.1.06-.37.21-1.15.21h0Z"/><path class="cls-2" d="m371.64,90.77c2.33,0,4.46.58,6.4,1.75,1.93,1.17,3.49,2.71,4.68,4.65,1.19,1.93,1.78,4.09,1.78,6.47,0,3.47-1.26,6.46-3.79,8.96-2.53,2.5-5.55,3.76-9.07,3.76s-6.59-1.25-9.07-3.76c-2.48-2.5-3.72-5.49-3.72-8.96s1.25-6.48,3.75-9.03c2.5-2.55,5.51-3.83,9.03-3.83m11,38.14v61.04h-22.6v-61.04h22.6m-11-50.53c-6.86,0-13.04,2.61-17.88,7.55-4.77,4.86-7.3,10.99-7.3,17.71,0,5.89,1.93,11.3,5.61,15.79-2.7,2.27-4.42,5.68-4.42,9.48v61.04c0,6.84,5.55,12.39,12.39,12.39h22.6c6.84,0,12.39-5.55,12.39-12.39v-61.04c0-3.64-1.57-6.91-4.06-9.17,3.88-4.54,5.92-10.07,5.92-16.1,0-4.69-1.22-9.05-3.62-12.96-2.23-3.62-5.2-6.57-8.84-8.77-3.89-2.34-8.2-3.53-12.8-3.53h0Z"/><path class="cls-2" d="m439.6,127.13c4.26,0,8.43.87,12.49,2.6,4.06,1.73,7.41,4.47,10.03,8.22,2.63,3.74,3.94,8.66,3.94,14.76v37.25h-22.68v-33.53c0-4.36-1.04-7.64-3.12-9.85s-4.81-3.31-8.18-3.31c-2.23,0-4.33.58-6.28,1.75s-3.55,2.8-4.76,4.91c-1.22,2.11-1.82,4.52-1.82,7.25v32.79h-22.6v-61.04h22.6v9c.6-1.64,1.85-3.28,3.75-4.94,1.91-1.66,4.31-3.05,7.21-4.16,2.9-1.11,6.03-1.67,9.41-1.67m0-12.39c-4.88,0-9.55.84-13.85,2.5-.41.16-.81.32-1.2.48-1.61-.77-3.41-1.2-5.32-1.2h-22.6c-6.84,0-12.39,5.55-12.39,12.39v61.04c0,6.84,5.55,12.39,12.39,12.39h22.6c5.89,0,10.82-4.11,12.08-9.62,1.26,5.51,6.19,9.62,12.08,9.62h22.68c6.84,0,12.39-5.55,12.39-12.39v-37.25c0-8.67-2.08-16.03-6.19-21.88-3.96-5.64-9.11-9.84-15.31-12.49-5.59-2.39-11.43-3.6-17.36-3.6h0Z"/><path class="cls-2" d="m505.29,127.13c3.81,0,7.16.61,10.04,1.82,2.87,1.21,5.2,2.65,6.99,4.31s3.02,3.18,3.72,4.57v-8.92h22.45v62.75c0,6.74-1.67,12.42-5.02,17.03-3.35,4.61-7.84,8.08-13.5,10.41-5.65,2.33-12,3.49-19.03,3.49-4.27,0-8.49-.37-12.68-1.12-4.19-.74-8.09-2.01-11.71-3.79-3.62-1.78-6.67-4.24-9.15-7.36l13.23-13.75c1.14,1.34,2.54,2.65,4.2,3.94,1.66,1.29,3.72,2.35,6.17,3.2s5.44,1.26,8.96,1.26c3.27,0,6.12-.57,8.55-1.71s4.33-2.8,5.69-4.98c1.36-2.18,2.05-4.83,2.05-7.95v-10.26c-.44.99-1.57,2.43-3.38,4.31s-4.2,3.58-7.17,5.09c-2.98,1.51-6.45,2.27-10.41,2.27-5.95,0-11.15-1.45-15.61-4.35-4.46-2.9-7.93-6.79-10.41-11.67-2.48-4.88-3.72-10.3-3.72-16.24s1.24-11.36,3.72-16.25c2.48-4.88,5.95-8.79,10.41-11.71,4.46-2.93,9.67-4.39,15.61-4.39m6.69,46.84c2.73,0,5.13-.62,7.21-1.86,2.08-1.24,3.73-2.96,4.94-5.17,1.21-2.2,1.82-4.7,1.82-7.47s-.61-5.27-1.82-7.47c-1.22-2.21-2.86-3.94-4.94-5.2-2.08-1.26-4.49-1.9-7.21-1.9s-5.02.63-7.18,1.9c-2.16,1.26-3.88,3-5.17,5.2-1.29,2.21-1.93,4.7-1.93,7.47s.64,5.27,1.93,7.47c1.29,2.21,3.01,3.93,5.17,5.17s4.55,1.86,7.18,1.86m-6.69-59.23c-8.38,0-15.92,2.16-22.41,6.42-6.27,4.11-11.2,9.65-14.66,16.46-3.36,6.62-5.06,13.97-5.06,21.85s1.7,15.24,5.06,21.85c2.26,4.46,5.16,8.37,8.65,11.69l-8.39,8.72c-4.3,4.47-4.63,11.43-.78,16.29,3.61,4.55,8.11,8.18,13.37,10.77,4.65,2.29,9.7,3.93,15.02,4.88,4.88.87,9.88,1.31,14.84,1.31,8.63,0,16.62-1.49,23.75-4.43,7.78-3.21,14.11-8.12,18.81-14.59,4.9-6.75,7.38-14.92,7.38-24.3v-62.75c0-6.84-5.55-12.39-12.39-12.39h-22.45c-1.93,0-3.76.44-5.39,1.23-.16-.07-.33-.14-.5-.21-4.4-1.86-9.4-2.8-14.86-2.8h0Zm6.69,46.84c-.64,0-.88-.14-1-.21-.2-.11-.39-.25-.64-.67-.07-.12-.24-.41-.24-1.22s.17-1.11.24-1.22c.25-.43.47-.61.74-.77.13-.08.33-.19.91-.19.51,0,.74.07.79.1.11.07.28.17.51.59.06.12.28.51.28,1.49s-.21,1.37-.29,1.5c-.2.36-.32.44-.43.5-.06.04-.33.11-.87.11h0Z"/><ellipse class="cls-2" cx="511.73" cy="157.1" rx="7.47" ry="10.31"/><ellipse class="cls-2" cx="309.82" cy="162.26" rx="7.76" ry="5.15"/><circle class="cls-2" cx="227.29" cy="160.93" r="6.48"/><path class="cls-2" d="m635.62,125.57c3.81,0,7.16.61,10.04,1.82,2.87,1.21,5.2,2.65,6.99,4.31s3.02,3.18,3.72,4.57v-8.92h22.45v62.75c0,6.74-1.67,12.42-5.02,17.03-3.35,4.61-7.84,8.08-13.5,10.41-5.65,2.33-12,3.49-19.03,3.49-4.27,0-8.49-.37-12.68-1.12-4.19-.74-8.09-2.01-11.71-3.79-3.62-1.78-6.67-4.24-9.15-7.36l13.23-13.75c1.14,1.34,2.54,2.65,4.2,3.94,1.66,1.29,3.72,2.35,6.17,3.2,2.45.84,5.44,1.26,8.96,1.26,3.27,0,6.12-.57,8.55-1.71,2.43-1.14,4.33-2.8,5.69-4.98,1.36-2.18,2.05-4.83,2.05-7.95v-10.26c-.44.99-1.57,2.43-3.38,4.31s-4.2,3.58-7.17,5.09c-2.98,1.51-6.45,2.27-10.41,2.27-5.95,0-11.15-1.45-15.61-4.35-4.46-2.9-7.93-6.79-10.41-11.67-2.48-4.88-3.72-10.3-3.72-16.24s1.24-11.36,3.72-16.25c2.48-4.88,5.95-8.79,10.41-11.71,4.46-2.93,9.67-4.39,15.61-4.39m6.69,46.84c2.73,0,5.13-.62,7.21-1.86,2.08-1.24,3.73-2.96,4.94-5.17,1.21-2.2,1.82-4.7,1.82-7.47s-.61-5.27-1.82-7.47c-1.22-2.21-2.86-3.94-4.94-5.2-2.08-1.26-4.49-1.9-7.21-1.9s-5.02.63-7.18,1.9c-2.16,1.26-3.88,3-5.17,5.2-1.29,2.21-1.93,4.7-1.93,7.47s.64,5.27,1.93,7.47c1.29,2.21,3.01,3.93,5.17,5.17s4.55,1.86,7.18,1.86m-6.69-59.23c-8.38,0-15.92,2.16-22.41,6.42-6.27,4.11-11.2,9.65-14.66,16.46-3.36,6.62-5.06,13.97-5.06,21.85s1.7,15.24,5.06,21.85c2.26,4.46,5.16,8.37,8.65,11.69l-8.39,8.72c-4.3,4.47-4.63,11.43-.78,16.29,3.61,4.55,8.11,8.18,13.37,10.77,4.65,2.29,9.7,3.93,15.02,4.88,4.88.87,9.88,1.31,14.84,1.31,8.63,0,16.62-1.49,23.75-4.43,7.78-3.21,14.11-8.12,18.81-14.59,4.9-6.75,7.38-14.92,7.38-24.3v-62.75c0-6.84-5.55-12.39-12.39-12.39h-22.45c-1.93,0-3.76.44-5.39,1.23-.16-.07-.33-.14-.5-.21-4.4-1.86-9.4-2.8-14.86-2.8h0Zm6.69,46.84c-.64,0-.88-.14-1-.21-.2-.11-.39-.25-.64-.67-.07-.12-.24-.41-.24-1.22s.17-1.11.24-1.22c.25-.43.47-.61.74-.77.13-.08.33-.19.91-.19.51,0,.74.07.79.1.11.07.28.17.51.59.06.12.28.51.28,1.49s-.21,1.37-.29,1.5c-.2.36-.32.44-.43.5-.06.04-.33.11-.87.11h0Z"/><path class="cls-2" d="m722.37,125.57c6.64,0,12.4,1.21,17.29,3.64,4.88,2.43,8.65,6.04,11.3,10.82,2.65,4.78,3.98,10.74,3.98,17.88,0,.4-.02,1.19-.04,2.38-.02,1.19-.08,1.98-.18,2.38h-44.16c.15,2.18.84,4.12,2.08,5.8,1.24,1.69,2.96,3.01,5.17,3.98s4.82,1.45,7.84,1.45,5.46-.3,7.77-.89c2.31-.6,4.31-1.34,6.02-2.23,1.71-.89,3.03-1.81,3.98-2.75l8.77,13.98c-1.24,1.34-2.99,2.64-5.24,3.9-2.26,1.26-5.22,2.29-8.89,3.09-3.67.79-8.3,1.19-13.9,1.19-6.74,0-12.74-1.26-17.99-3.79-5.25-2.53-9.39-6.25-12.42-11.15-3.03-4.91-4.54-10.9-4.54-17.99,0-5.95,1.3-11.31,3.91-16.1,2.6-4.78,6.38-8.58,11.34-11.37,4.96-2.8,10.93-4.2,17.92-4.2m-11.3,25.28h22.6c-.05-1.59-.47-3.16-1.26-4.72-.79-1.56-1.98-2.85-3.57-3.87-1.59-1.01-3.62-1.52-6.1-1.52s-4.57.48-6.28,1.45c-1.71.97-3.01,2.22-3.91,3.75-.89,1.54-1.39,3.17-1.49,4.91m11.3-37.67c-9.12,0-17.2,1.95-24.01,5.8-6.98,3.94-12.41,9.41-16.13,16.24-3.59,6.6-5.41,14.01-5.41,22.02,0,9.39,2.15,17.63,6.38,24.5,4.27,6.93,10.19,12.26,17.59,15.82,6.92,3.33,14.78,5.02,23.36,5.02,6.54,0,11.94-.48,16.52-1.47,4.93-1.06,8.96-2.5,12.33-4.39,3.43-1.92,6.14-3.98,8.28-6.3,3.8-4.11,4.37-10.26,1.4-15l-1.4-2.23c2.64-1.65,4.64-4.29,5.45-7.47.35-1.39.51-2.89.56-5.16.03-1.32.04-2.19.04-2.63,0-9.23-1.86-17.26-5.53-23.89-3.88-7-9.48-12.35-16.62-15.91-6.59-3.28-14.26-4.94-22.81-4.94h0Z"/><path class="cls-3" d="m808.3,125.57c4.26,0,8.43.87,12.49,2.6,4.06,1.73,7.41,4.47,10.03,8.22,2.63,3.74,3.94,8.66,3.94,14.76v37.25h-22.68v-33.53c0-4.36-1.04-7.64-3.12-9.85-2.08-2.21-4.81-3.31-8.18-3.31-2.23,0-4.33.58-6.28,1.75s-3.55,2.8-4.76,4.91c-1.22,2.11-1.82,4.52-1.82,7.25v32.79h-22.6v-61.04h22.6v9c.6-1.64,1.85-3.28,3.75-4.94,1.91-1.66,4.31-3.05,7.21-4.16,2.9-1.11,6.03-1.67,9.41-1.67Z"/><path class="cls-2" d="m808.3,125.57c4.26,0,8.43.87,12.49,2.6,4.06,1.73,7.41,4.47,10.03,8.22,2.63,3.74,3.94,8.66,3.94,14.76v37.25h-22.68v-33.53c0-4.36-1.04-7.64-3.12-9.85-2.08-2.21-4.81-3.31-8.18-3.31-2.23,0-4.33.58-6.28,1.75s-3.55,2.8-4.76,4.91c-1.22,2.11-1.82,4.52-1.82,7.25v32.79h-22.6v-61.04h22.6v9c.6-1.64,1.85-3.28,3.75-4.94,1.91-1.66,4.31-3.05,7.21-4.16,2.9-1.11,6.03-1.67,9.41-1.67m0-12.39c-4.88,0-9.55.84-13.85,2.5-.41.16-.81.32-1.2.48-1.61-.77-3.41-1.2-5.32-1.2h-22.6c-6.84,0-12.39,5.55-12.39,12.39v61.04c0,6.84,5.55,12.39,12.39,12.39h22.6c5.89,0,10.82-4.11,12.08-9.62,1.26,5.51,6.19,9.62,12.08,9.62h22.68c6.84,0,12.39-5.55,12.39-12.39v-37.25c0-8.67-2.08-16.03-6.19-21.88-3.96-5.64-9.11-9.84-15.31-12.49-5.59-2.39-11.43-3.6-17.36-3.6h0Z"/><path class="cls-2" d="m859.24,89.21c2.33,0,4.46.58,6.4,1.75,1.93,1.17,3.49,2.71,4.68,4.65s1.78,4.09,1.78,6.47c0,3.47-1.26,6.46-3.79,8.96-2.53,2.5-5.55,3.76-9.07,3.76s-6.59-1.25-9.07-3.76c-2.48-2.5-3.72-5.49-3.72-8.96s1.25-6.48,3.75-9.03c2.5-2.55,5.51-3.83,9.03-3.83m11,38.14v61.04h-22.6v-61.04h22.6m-11-50.53c-6.86,0-13.04,2.61-17.88,7.55-4.77,4.86-7.3,10.99-7.3,17.71,0,5.89,1.93,11.3,5.61,15.79-2.7,2.27-4.42,5.68-4.42,9.48v61.04c0,6.84,5.55,12.39,12.39,12.39h22.6c6.84,0,12.39-5.55,12.39-12.39v-61.04c0-3.64-1.57-6.91-4.06-9.17,3.88-4.54,5.92-10.07,5.92-16.1,0-4.69-1.22-9.05-3.62-12.96-2.23-3.62-5.2-6.57-8.84-8.77-3.89-2.34-8.2-3.53-12.8-3.53h0Z"/><path class="cls-3" d="m902.08,162.67c.15,2.18.84,4.12,2.08,5.8,1.24,1.69,2.96,3.01,5.17,3.98s4.82,1.45,7.84,1.45,5.46-.3,7.77-.89c2.31-.6,4.31-1.34,6.02-2.23,1.71-.89,3.03-1.81,3.98-2.75l8.77,13.98c-1.24,1.34-2.99,2.64-5.24,3.9-2.26,1.26-5.22,2.29-8.89,3.09-3.67.79-8.3,1.19-13.9,1.19-6.74,0-12.74-1.26-17.99-3.79-5.25-2.53-9.39-6.25-12.42-11.15-3.03-4.91-4.54-10.9-4.54-17.99,0-5.95,1.3-11.31,3.91-16.1,2.6-4.78,6.38-8.58,11.34-11.37,4.96-2.8,10.93-4.2,17.92-4.2s12.4,1.21,17.29,3.64c4.88,2.43,8.65,6.04,11.3,10.82,2.65,4.78,3.98,10.74,3.98,17.88,0,.4-.02,1.19-.04,2.38-.02,1.19-.08,1.98-.18,2.38h-44.16Zm23.12-11.82c-.05-1.59-.47-3.16-1.26-4.72s-1.98-2.85-3.57-3.87c-1.59-1.01-3.62-1.52-6.1-1.52s-4.57.48-6.28,1.45c-1.71.97-3.01,2.22-3.91,3.75-.89,1.54-1.39,3.17-1.49,4.91h22.6Z"/><path class="cls-2" d="m913.9,125.57c6.64,0,12.4,1.21,17.29,3.64,4.88,2.43,8.65,6.04,11.3,10.82,2.65,4.78,3.98,10.74,3.98,17.88,0,.4-.02,1.19-.04,2.38-.02,1.19-.08,1.98-.18,2.38h-44.16c.15,2.18.84,4.12,2.08,5.8,1.24,1.69,2.96,3.01,5.17,3.98s4.82,1.45,7.84,1.45,5.46-.3,7.77-.89c2.31-.6,4.31-1.34,6.02-2.23,1.71-.89,3.03-1.81,3.98-2.75l8.77,13.98c-1.24,1.34-2.99,2.64-5.24,3.9-2.26,1.26-5.22,2.29-8.89,3.09-3.67.79-8.3,1.19-13.9,1.19-6.74,0-12.74-1.26-17.99-3.79-5.25-2.53-9.39-6.25-12.42-11.15-3.03-4.91-4.54-10.9-4.54-17.99,0-5.95,1.3-11.31,3.91-16.1,2.6-4.78,6.38-8.58,11.34-11.37,4.96-2.8,10.93-4.2,17.92-4.2m-11.3,25.28h22.6c-.05-1.59-.47-3.16-1.26-4.72s-1.98-2.85-3.57-3.87c-1.59-1.01-3.62-1.52-6.1-1.52s-4.57.48-6.28,1.45c-1.71.97-3.01,2.22-3.91,3.75-.89,1.54-1.39,3.17-1.49,4.91m11.3-37.67c-9.12,0-17.2,1.95-24.01,5.8-6.98,3.94-12.41,9.41-16.13,16.24-3.59,6.6-5.41,14.01-5.41,22.02,0,9.39,2.15,17.63,6.38,24.5,4.27,6.93,10.19,12.26,17.59,15.82,6.92,3.33,14.78,5.02,23.36,5.02,6.54,0,11.94-.48,16.52-1.47,4.93-1.06,8.96-2.5,12.33-4.39,3.43-1.92,6.14-3.98,8.28-6.3,3.8-4.11,4.37-10.26,1.4-15l-1.4-2.23c2.64-1.65,4.64-4.29,5.45-7.47.35-1.39.51-2.89.56-5.16.03-1.32.04-2.19.04-2.63,0-9.23-1.86-17.26-5.53-23.89-3.88-7-9.48-12.35-16.62-15.91-6.59-3.28-14.26-4.94-22.81-4.94h0Z"/><path class="cls-3" d="m710.55,162.67c.15,2.18.84,4.12,2.08,5.8,1.24,1.69,2.96,3.01,5.17,3.98s4.82,1.45,7.84,1.45,5.46-.3,7.77-.89c2.31-.6,4.31-1.34,6.02-2.23,1.71-.89,3.03-1.81,3.98-2.75l8.77,13.98c-1.24,1.34-2.99,2.64-5.24,3.9-2.26,1.26-5.22,2.29-8.89,3.09-3.67.79-8.3,1.19-13.9,1.19-6.74,0-12.74-1.26-17.99-3.79-5.25-2.53-9.39-6.25-12.42-11.15-3.03-4.91-4.54-10.9-4.54-17.99,0-5.95,1.3-11.31,3.91-16.1,2.6-4.78,6.38-8.58,11.34-11.37,4.96-2.8,10.93-4.2,17.92-4.2s12.4,1.21,17.29,3.64c4.88,2.43,8.65,6.04,11.3,10.82,2.65,4.78,3.98,10.74,3.98,17.88,0,.4-.02,1.19-.04,2.38-.02,1.19-.08,1.98-.18,2.38h-44.16Zm23.12-11.82c-.05-1.59-.47-3.16-1.26-4.72s-1.98-2.85-3.57-3.87c-1.59-1.01-3.62-1.52-6.1-1.52s-4.57.48-6.28,1.45c-1.71.97-3.01,2.22-3.91,3.75-.89,1.54-1.39,3.17-1.49,4.91h22.6Z"/><path class="cls-3" d="m859.24,114.79c-3.57,0-6.59-1.25-9.07-3.76-2.48-2.5-3.72-5.49-3.72-8.96s1.25-6.48,3.75-9.03c2.5-2.55,5.51-3.83,9.03-3.83,2.33,0,4.46.58,6.4,1.75,1.93,1.17,3.49,2.71,4.68,4.65s1.78,4.09,1.78,6.47c0,3.47-1.26,6.46-3.79,8.96-2.53,2.5-5.55,3.76-9.07,3.76Zm-11.6,73.6v-61.04h22.6v61.04h-22.6Z"/><path class="cls-3" d="m656.36,127.35v8.92c-.7-1.39-1.93-2.91-3.72-4.57s-4.11-3.1-6.99-4.31c-2.88-1.21-6.22-1.82-10.04-1.82-5.95,0-11.15,1.46-15.61,4.39-4.46,2.92-7.93,6.83-10.41,11.71-2.48,4.88-3.72,10.3-3.72,16.25s1.24,11.36,3.72,16.24c2.48,4.88,5.95,8.77,10.41,11.67,4.46,2.9,9.67,4.35,15.61,4.35,3.96,0,7.43-.76,10.41-2.27,2.97-1.51,5.36-3.21,7.17-5.09s2.94-3.32,3.38-4.31v10.26c0,3.12-.68,5.77-2.05,7.95-1.36,2.18-3.26,3.84-5.69,4.98-2.43,1.14-5.28,1.71-8.55,1.71-3.52,0-6.5-.42-8.96-1.26-2.45-.84-4.51-1.91-6.17-3.2-1.66-1.29-3.06-2.6-4.2-3.94l-13.23,13.75c2.48,3.12,5.53,5.58,9.15,7.36,3.62,1.78,7.52,3.05,11.71,3.79,4.19.74,8.41,1.12,12.68,1.12,7.04,0,13.38-1.17,19.03-3.49,5.65-2.33,10.15-5.8,13.5-10.41,3.35-4.61,5.02-10.29,5.02-17.03v-62.75h-22.45Zm-1.9,38.03c-1.22,2.21-2.86,3.93-4.94,5.17-2.08,1.24-4.49,1.86-7.21,1.86s-5.02-.62-7.18-1.86-3.88-2.96-5.17-5.17c-1.29-2.2-1.93-4.7-1.93-7.47s.64-5.27,1.93-7.47c1.29-2.21,3.01-3.94,5.17-5.2,2.16-1.26,4.55-1.9,7.18-1.9s5.13.63,7.21,1.9c2.08,1.26,3.73,3,4.94,5.2,1.21,2.21,1.82,4.7,1.82,7.47s-.61,5.27-1.82,7.47Z"/><circle class="cls-2" cx="642.55" cy="160.02" r="4.29"/><path class="cls-3" d="m302.77,191.74c-5.9,0-11.03-1.45-15.39-4.35-4.36-2.9-7.74-6.79-10.15-11.67-2.41-4.88-3.61-10.3-3.61-16.24s1.2-11.36,3.61-16.25c2.41-4.88,5.79-8.79,10.15-11.71,4.36-2.93,9.49-4.39,15.39-4.39,3.91,0,7.38.61,10.41,1.82,3.02,1.21,5.48,2.65,7.36,4.31,1.88,1.66,3.02,3.18,3.42,4.57v-50.18h22.6v102.3h-22.38v-9.89c-.94,1.83-2.48,3.66-4.61,5.46-2.13,1.81-4.63,3.3-7.51,4.46-2.87,1.16-5.97,1.75-9.29,1.75Zm6.92-17.77c2.73,0,5.17-.62,7.32-1.86,2.16-1.24,3.85-2.96,5.09-5.17,1.24-2.2,1.86-4.7,1.86-7.47s-.62-5.27-1.86-7.47c-1.24-2.21-2.94-3.94-5.09-5.2-2.15-1.26-4.6-1.9-7.32-1.9s-4.99.63-7.1,1.9c-2.11,1.26-3.77,3-4.98,5.2-1.22,2.21-1.82,4.7-1.82,7.47s.61,5.27,1.82,7.47c1.21,2.21,2.87,3.93,4.98,5.17,2.11,1.24,4.47,1.86,7.1,1.86Z"/><path class="cls-3" d="m371.64,116.35c-3.57,0-6.59-1.25-9.07-3.76-2.48-2.5-3.72-5.49-3.72-8.96s1.25-6.48,3.75-9.03c2.5-2.55,5.51-3.83,9.03-3.83,2.33,0,4.46.58,6.4,1.75,1.93,1.17,3.49,2.71,4.68,4.65s1.78,4.09,1.78,6.47c0,3.47-1.26,6.46-3.79,8.96-2.53,2.5-5.55,3.76-9.07,3.76Zm-11.6,73.6v-61.04h22.6v61.04h-22.6Z"/><path class="cls-3" d="m240.69,189.96v-9.89c-.44.99-1.57,2.43-3.38,4.31-1.81,1.88-4.2,3.58-7.17,5.09-2.98,1.51-6.45,2.27-10.41,2.27-5.95,0-11.15-1.45-15.61-4.35-4.46-2.9-7.93-6.79-10.41-11.67-2.48-4.88-3.72-10.3-3.72-16.24s1.24-11.36,3.72-16.25c2.48-4.88,5.95-8.79,10.41-11.71,4.46-2.93,9.67-4.39,15.61-4.39,3.81,0,7.16.61,10.04,1.82,2.87,1.21,5.2,2.65,6.99,4.31,1.78,1.66,3.02,3.18,3.72,4.57v-8.92h22.45v61.04h-22.23Zm-28.55-30.48c0,2.78.64,5.27,1.93,7.47,1.29,2.21,3.01,3.93,5.17,5.17s4.55,1.86,7.18,1.86,5.13-.62,7.21-1.86c2.08-1.24,3.73-2.96,4.94-5.17,1.21-2.2,1.82-4.7,1.82-7.47s-.61-5.27-1.82-7.47c-1.22-2.21-2.86-3.94-4.94-5.2-2.08-1.26-4.49-1.9-7.21-1.9s-5.02.63-7.18,1.9c-2.16,1.26-3.88,3-5.17,5.2-1.29,2.21-1.93,4.7-1.93,7.47Z"/><path class="cls-3" d="m439.6,127.13c4.26,0,8.43.87,12.49,2.6,4.06,1.73,7.41,4.47,10.03,8.22,2.63,3.74,3.94,8.66,3.94,14.76v37.25h-22.68v-33.53c0-4.36-1.04-7.64-3.12-9.85-2.08-2.21-4.81-3.31-8.18-3.31-2.23,0-4.33.58-6.28,1.75s-3.55,2.8-4.76,4.91c-1.22,2.11-1.82,4.52-1.82,7.25v32.79h-22.6v-61.04h22.6v9c.6-1.64,1.85-3.28,3.75-4.94,1.91-1.66,4.31-3.05,7.21-4.16,2.9-1.11,6.03-1.67,9.41-1.67Z"/><path class="cls-3" d="m138.27,164.23c.15,2.18.84,4.12,2.08,5.8,1.24,1.69,2.96,3.01,5.17,3.98s4.82,1.45,7.84,1.45,5.46-.3,7.77-.89c2.31-.6,4.31-1.34,6.02-2.23,1.71-.89,3.03-1.81,3.98-2.75l8.77,13.98c-1.24,1.34-2.99,2.64-5.24,3.9-2.26,1.26-5.22,2.29-8.89,3.09-3.67.79-8.3,1.19-13.9,1.19-6.74,0-12.74-1.26-17.99-3.79-5.25-2.53-9.39-6.25-12.42-11.15-3.03-4.91-4.54-10.9-4.54-17.99,0-5.95,1.3-11.31,3.91-16.1,2.6-4.78,6.38-8.58,11.34-11.37,4.96-2.8,10.93-4.2,17.92-4.2s12.4,1.21,17.29,3.64c4.88,2.43,8.65,6.04,11.3,10.82,2.65,4.78,3.98,10.74,3.98,17.88,0,.4-.02,1.19-.04,2.38-.02,1.19-.08,1.98-.18,2.38h-44.16Zm23.12-11.82c-.05-1.59-.47-3.16-1.26-4.72s-1.98-2.85-3.57-3.87c-1.59-1.01-3.62-1.52-6.1-1.52s-4.57.48-6.28,1.45c-1.71.97-3.01,2.22-3.91,3.75-.89,1.54-1.39,3.17-1.49,4.91h22.6Z"/><path class="cls-3" d="m526.04,128.92v8.92c-.7-1.39-1.93-2.91-3.72-4.57s-4.11-3.1-6.99-4.31c-2.88-1.21-6.22-1.82-10.04-1.82-5.95,0-11.15,1.46-15.61,4.39-4.46,2.92-7.93,6.83-10.41,11.71-2.48,4.88-3.72,10.3-3.72,16.25s1.24,11.36,3.72,16.24c2.48,4.88,5.95,8.77,10.41,11.67,4.46,2.9,9.67,4.35,15.61,4.35,3.96,0,7.43-.76,10.41-2.27,2.97-1.51,5.36-3.21,7.17-5.09s2.94-3.32,3.38-4.31v10.26c0,3.12-.68,5.77-2.05,7.95-1.36,2.18-3.26,3.84-5.69,4.98s-5.28,1.71-8.55,1.71c-3.52,0-6.5-.42-8.96-1.26s-4.51-1.91-6.17-3.2c-1.66-1.29-3.06-2.6-4.2-3.94l-13.23,13.75c2.48,3.12,5.53,5.58,9.15,7.36,3.62,1.78,7.52,3.05,11.71,3.79,4.19.74,8.41,1.12,12.68,1.12,7.04,0,13.38-1.17,19.03-3.49,5.65-2.33,10.15-5.8,13.5-10.41,3.35-4.61,5.02-10.29,5.02-17.03v-62.75h-22.45Zm-1.9,38.03c-1.22,2.21-2.86,3.93-4.94,5.17-2.08,1.24-4.49,1.86-7.21,1.86s-5.02-.62-7.18-1.86-3.88-2.96-5.17-5.17c-1.29-2.2-1.93-4.7-1.93-7.47s.64-5.27,1.93-7.47c1.29-2.21,3.01-3.94,5.17-5.2,2.16-1.26,4.55-1.9,7.18-1.9s5.13.63,7.21,1.9c2.08,1.26,3.73,3,4.94,5.2,1.21,2.21,1.82,4.7,1.82,7.47s-.61,5.27-1.82,7.47Z"/><path class="cls-3" d="m84.62,189.96h-22.6v-61.04h22.6v9.44h-.37c.4-1.14,1.36-2.59,2.9-4.35,1.54-1.76,3.69-3.35,6.47-4.76,2.78-1.41,6.17-2.12,10.19-2.12,2.83,0,5.43.43,7.81,1.3,2.38.87,4.11,1.7,5.2,2.49l-8.77,18.36c-.7-.84-1.92-1.72-3.68-2.64-1.76-.92-3.95-1.37-6.58-1.37-3.02,0-5.51.77-7.47,2.3-1.96,1.54-3.4,3.4-4.31,5.58s-1.37,4.24-1.37,6.17v30.63Z"/></svg>